<svg width="59" height="19" viewBox="0 0 59 19" fill="none" xmlns="http://www.w3.org/2000/svg">
<path d="M4.03906 0.9375V18H0.523438V0.9375H4.03906ZM10.8359 8.22656V10.9688H3.07812V8.22656H10.8359ZM11.6562 0.9375V3.69141H3.07812V0.9375H11.6562ZM17.0469 5.32031V18H13.6602V5.32031H17.0469ZM13.4492 2.01562C13.4492 1.52344 13.6211 1.11719 13.9648 0.796875C14.3086 0.476562 14.7695 0.316406 15.3477 0.316406C15.918 0.316406 16.375 0.476562 16.7188 0.796875C17.0703 1.11719 17.2461 1.52344 17.2461 2.01562C17.2461 2.50781 17.0703 2.91406 16.7188 3.23438C16.375 3.55469 15.918 3.71484 15.3477 3.71484C14.7695 3.71484 14.3086 3.55469 13.9648 3.23438C13.6211 2.91406 13.4492 2.50781 13.4492 2.01562ZM23.1406 8.02734V18H19.7656V5.32031H22.9297L23.1406 8.02734ZM22.6484 11.2148H21.7344C21.7344 10.2773 21.8555 9.43359 22.0977 8.68359C22.3398 7.92578 22.6797 7.28125 23.1172 6.75C23.5547 6.21094 24.0742 5.80078 24.6758 5.51953C25.2852 5.23047 25.9648 5.08594 26.7148 5.08594C27.3086 5.08594 27.8516 5.17188 28.3438 5.34375C28.8359 5.51562 29.2578 5.78906 29.6094 6.16406C29.9688 6.53906 30.2422 7.03516 30.4297 7.65234C30.625 8.26953 30.7227 9.02344 30.7227 9.91406V18H27.3242V9.90234C27.3242 9.33984 27.2461 8.90234 27.0898 8.58984C26.9336 8.27734 26.7031 8.05859 26.3984 7.93359C26.1016 7.80078 25.7344 7.73438 25.2969 7.73438C24.8438 7.73438 24.4492 7.82422 24.1133 8.00391C23.7852 8.18359 23.5117 8.43359 23.293 8.75391C23.082 9.06641 22.9219 9.43359 22.8125 9.85547C22.7031 10.2773 22.6484 10.7305 22.6484 11.2148ZM36.8516 5.32031V18H33.4648V5.32031H36.8516ZM33.2539 2.01562C33.2539 1.52344 33.4258 1.11719 33.7695 0.796875C34.1133 0.476562 34.5742 0.316406 35.1523 0.316406C35.7227 0.316406 36.1797 0.476562 36.5234 0.796875C36.875 1.11719 37.0508 1.52344 37.0508 2.01562C37.0508 2.50781 36.875 2.91406 36.5234 3.23438C36.1797 3.55469 35.7227 3.71484 35.1523 3.71484C34.5742 3.71484 34.1133 3.55469 33.7695 3.23438C33.4258 2.91406 33.2539 2.50781 33.2539 2.01562ZM45.8516 5.32031V7.71094H38.4688V5.32031H45.8516ZM40.2969 2.19141H43.6719V14.1797C43.6719 14.5469 43.7188 14.8281 43.8125 15.0234C43.9141 15.2188 44.0625 15.3555 44.2578 15.4336C44.4531 15.5039 44.6992 15.5391 44.9961 15.5391C45.207 15.5391 45.3945 15.5312 45.5586 15.5156C45.7305 15.4922 45.875 15.4688 45.9922 15.4453L46.0039 17.9297C45.7148 18.0234 45.4023 18.0977 45.0664 18.1523C44.7305 18.207 44.3594 18.2344 43.9531 18.2344C43.2109 18.2344 42.5625 18.1133 42.0078 17.8711C41.4609 17.6211 41.0391 17.2227 40.7422 16.6758C40.4453 16.1289 40.2969 15.4102 40.2969 14.5195V2.19141ZM53.6094 18.2344C52.625 18.2344 51.7422 18.0781 50.9609 17.7656C50.1797 17.4453 49.5156 17.0039 48.9688 16.4414C48.4297 15.8789 48.0156 15.2266 47.7266 14.4844C47.4375 13.7344 47.293 12.9375 47.293 12.0938V11.625C47.293 10.6641 47.4297 9.78516 47.7031 8.98828C47.9766 8.19141 48.3672 7.5 48.875 6.91406C49.3906 6.32812 50.0156 5.87891 50.75 5.56641C51.4844 5.24609 52.3125 5.08594 53.2344 5.08594C54.1328 5.08594 54.9297 5.23438 55.625 5.53125C56.3203 5.82812 56.9023 6.25 57.3711 6.79688C57.8477 7.34375 58.207 8 58.4492 8.76562C58.6914 9.52344 58.8125 10.3672 58.8125 11.2969V12.7031H48.7344V10.4531H55.4961V10.1953C55.4961 9.72656 55.4102 9.30859 55.2383 8.94141C55.0742 8.56641 54.8242 8.26953 54.4883 8.05078C54.1523 7.83203 53.7227 7.72266 53.1992 7.72266C52.7539 7.72266 52.3711 7.82031 52.0508 8.01562C51.7305 8.21094 51.4688 8.48438 51.2656 8.83594C51.0703 9.1875 50.9219 9.60156 50.8203 10.0781C50.7266 10.5469 50.6797 11.0625 50.6797 11.625V12.0938C50.6797 12.6016 50.75 13.0703 50.8906 13.5C51.0391 13.9297 51.2461 14.3008 51.5117 14.6133C51.7852 14.9258 52.1133 15.168 52.4961 15.3398C52.8867 15.5117 53.3281 15.5977 53.8203 15.5977C54.4297 15.5977 54.9961 15.4805 55.5195 15.2461C56.0508 15.0039 56.5078 14.6406 56.8906 14.1562L58.5312 15.9375C58.2656 16.3203 57.9023 16.6875 57.4414 17.0391C56.9883 17.3906 56.4414 17.6797 55.8008 17.9062C55.1602 18.125 54.4297 18.2344 53.6094 18.2344Z" fill="url(#paint0_linear_1324_254)"/>
<defs>
<linearGradient id="paint0_linear_1324_254" x1="2" y1="-4.72727" x2="65.1979" y2="22.6416" gradientUnits="userSpaceOnUse">
<stop stop-color="#B182FF"/>
<stop offset="0.5" stop-color="#8310C9"/>
<stop offset="1" stop-color="#5315D9"/>
</linearGradient>
</defs>
</svg>
